<mxfile host="app.diagrams.net" modified="2023-08-17T11:21:12.189Z" agent="Mozilla/5.0 (X11; Ubuntu; Linux x86_64; rv:109.0) Gecko/20100101 Firefox/116.0" etag="7ju307opxSAciuaZveJH" version="21.2.1" type="device">
  <diagram id="uXrq8dg63rQhP6GeaV6V" name="PÃ¡gina-1">
    <mxGraphModel dx="4317" dy="926" grid="1" gridSize="10" guides="1" tooltips="1" connect="1" arrows="1" fold="1" page="1" pageScale="1" pageWidth="827" pageHeight="1169" math="0" shadow="0">
      <root>
        <mxCell id="0" />
        <mxCell id="1" parent="0" />
        <mxCell id="LZs2rjxKlA266blrwGbd-95" value="" style="edgeStyle=orthogonalEdgeStyle;rounded=0;orthogonalLoop=1;jettySize=auto;html=1;" edge="1" parent="1" source="LZs2rjxKlA266blrwGbd-58" target="LZs2rjxKlA266blrwGbd-92">
          <mxGeometry relative="1" as="geometry" />
        </mxCell>
        <mxCell id="LZs2rjxKlA266blrwGbd-58" value="&lt;div&gt;&lt;font style=&quot;font-size: 14px;&quot;&gt;&lt;br&gt;&lt;/font&gt;&lt;/div&gt;&lt;div&gt;&lt;font size=&quot;3&quot;&gt;&lt;b&gt;Raw Dataset&lt;/b&gt;&lt;/font&gt;&lt;/div&gt;&lt;font size=&quot;3&quot;&gt;&lt;b&gt;(1243, 45)&lt;/b&gt;&lt;/font&gt;" style="strokeWidth=2;html=1;shape=mxgraph.flowchart.database;whiteSpace=wrap;fillColor=#B9E0A5;" vertex="1" parent="1">
          <mxGeometry x="-1370" y="452.5" width="140" height="142.5" as="geometry" />
        </mxCell>
        <mxCell id="LZs2rjxKlA266blrwGbd-116" style="edgeStyle=orthogonalEdgeStyle;rounded=0;orthogonalLoop=1;jettySize=auto;html=1;entryX=0;entryY=0.5;entryDx=0;entryDy=0;" edge="1" parent="1" source="LZs2rjxKlA266blrwGbd-101" target="LZs2rjxKlA266blrwGbd-114">
          <mxGeometry relative="1" as="geometry" />
        </mxCell>
        <mxCell id="LZs2rjxKlA266blrwGbd-113" style="edgeStyle=orthogonalEdgeStyle;rounded=0;orthogonalLoop=1;jettySize=auto;html=1;entryX=0.5;entryY=0;entryDx=0;entryDy=0;" edge="1" parent="1" source="LZs2rjxKlA266blrwGbd-104" target="LZs2rjxKlA266blrwGbd-111">
          <mxGeometry relative="1" as="geometry" />
        </mxCell>
        <mxCell id="LZs2rjxKlA266blrwGbd-112" value="" style="edgeStyle=orthogonalEdgeStyle;rounded=0;orthogonalLoop=1;jettySize=auto;html=1;" edge="1" parent="1" source="LZs2rjxKlA266blrwGbd-106" target="LZs2rjxKlA266blrwGbd-111">
          <mxGeometry relative="1" as="geometry" />
        </mxCell>
        <mxCell id="LZs2rjxKlA266blrwGbd-120" value="" style="group" vertex="1" connectable="0" parent="1">
          <mxGeometry x="-600" y="431.87" width="280" height="183.75" as="geometry" />
        </mxCell>
        <mxCell id="LZs2rjxKlA266blrwGbd-106" value="" style="whiteSpace=wrap;html=1;rounded=0;fillColor=#FFFF99;" vertex="1" parent="LZs2rjxKlA266blrwGbd-120">
          <mxGeometry width="280" height="183.75" as="geometry" />
        </mxCell>
        <mxCell id="LZs2rjxKlA266blrwGbd-108" value="&lt;font style=&quot;font-size: 18px;&quot;&gt;&lt;b&gt;Model Development&lt;br&gt;&lt;/b&gt;&lt;/font&gt;" style="text;html=1;strokeColor=none;fillColor=none;align=center;verticalAlign=middle;whiteSpace=wrap;rounded=0;" vertex="1" parent="LZs2rjxKlA266blrwGbd-120">
          <mxGeometry y="151.25" width="180" height="30" as="geometry" />
        </mxCell>
        <mxCell id="LZs2rjxKlA266blrwGbd-109" value="&lt;div&gt;&lt;b&gt;Stratified Cross-Validation&lt;/b&gt;&lt;/div&gt;&lt;div&gt;&lt;b&gt;k=10&lt;br&gt;&lt;/b&gt;&lt;/div&gt;" style="rounded=0;whiteSpace=wrap;html=1;fillColor=#FFE6CC;strokeColor=#999999;" vertex="1" parent="LZs2rjxKlA266blrwGbd-120">
          <mxGeometry x="40" y="48.75" width="86" height="70" as="geometry" />
        </mxCell>
        <mxCell id="LZs2rjxKlA266blrwGbd-110" value="&lt;div&gt;&lt;b&gt;Algorithm Benchmarking&lt;br&gt;&lt;/b&gt;&lt;/div&gt;" style="rounded=0;whiteSpace=wrap;html=1;fillColor=#FFE6CC;strokeColor=#999999;" vertex="1" parent="LZs2rjxKlA266blrwGbd-120">
          <mxGeometry x="150" y="48.75" width="96" height="70" as="geometry" />
        </mxCell>
        <mxCell id="LZs2rjxKlA266blrwGbd-121" value="" style="group" vertex="1" connectable="0" parent="1">
          <mxGeometry x="-1180" y="360" width="390" height="345" as="geometry" />
        </mxCell>
        <mxCell id="LZs2rjxKlA266blrwGbd-92" value="" style="rounded=0;whiteSpace=wrap;html=1;fillColor=#FFFF99;" vertex="1" parent="LZs2rjxKlA266blrwGbd-121">
          <mxGeometry y="70" width="370" height="187.5" as="geometry" />
        </mxCell>
        <mxCell id="LZs2rjxKlA266blrwGbd-93" value="&lt;font style=&quot;font-size: 18px;&quot;&gt;&lt;b&gt;Data Preparation&lt;/b&gt;&lt;/font&gt;" style="text;html=1;strokeColor=none;fillColor=none;align=center;verticalAlign=middle;whiteSpace=wrap;rounded=0;" vertex="1" parent="LZs2rjxKlA266blrwGbd-121">
          <mxGeometry y="222.5" width="150" height="30" as="geometry" />
        </mxCell>
        <mxCell id="LZs2rjxKlA266blrwGbd-96" value="&lt;div align=&quot;center&quot;&gt;&lt;font style=&quot;font-size: 14px;&quot;&gt;&lt;b&gt;&amp;nbsp;Data Transformation&lt;/b&gt;&lt;br&gt;&lt;/font&gt;&lt;/div&gt;" style="rounded=0;whiteSpace=wrap;html=1;align=center;verticalAlign=middle;fillColor=#FFE6CC;strokeColor=#999999;strokeWidth=2;" vertex="1" parent="LZs2rjxKlA266blrwGbd-121">
          <mxGeometry x="30" y="114.38" width="130" height="81.25" as="geometry" />
        </mxCell>
        <mxCell id="LZs2rjxKlA266blrwGbd-99" value="&lt;div align=&quot;center&quot;&gt;&lt;font style=&quot;font-size: 14px;&quot;&gt;&lt;b&gt;Resampling&lt;br&gt;&lt;/b&gt;&lt;/font&gt;&lt;/div&gt;" style="rounded=0;whiteSpace=wrap;html=1;align=center;verticalAlign=middle;fillColor=#FFE6CC;strokeColor=#999999;strokeWidth=2;" vertex="1" parent="LZs2rjxKlA266blrwGbd-121">
          <mxGeometry x="220" y="114.38" width="130" height="81.25" as="geometry" />
        </mxCell>
        <mxCell id="LZs2rjxKlA266blrwGbd-100" value="" style="endArrow=none;html=1;rounded=0;exitX=1;exitY=0.5;exitDx=0;exitDy=0;entryX=0;entryY=0.5;entryDx=0;entryDy=0;" edge="1" parent="LZs2rjxKlA266blrwGbd-121" source="LZs2rjxKlA266blrwGbd-96" target="LZs2rjxKlA266blrwGbd-99">
          <mxGeometry width="50" height="50" relative="1" as="geometry">
            <mxPoint x="260" y="240" as="sourcePoint" />
            <mxPoint x="310" y="190" as="targetPoint" />
          </mxGeometry>
        </mxCell>
        <mxCell id="LZs2rjxKlA266blrwGbd-101" value="&lt;div align=&quot;center&quot;&gt;&lt;font style=&quot;font-size: 14px;&quot;&gt;&lt;b&gt;VS1&lt;br&gt;&lt;/b&gt;&lt;/font&gt;&lt;/div&gt;" style="rounded=0;whiteSpace=wrap;html=1;align=center;verticalAlign=middle;fillColor=#E6E6E6;strokeColor=#999999;strokeWidth=2;" vertex="1" parent="LZs2rjxKlA266blrwGbd-121">
          <mxGeometry x="150" y="295" width="80" height="50" as="geometry" />
        </mxCell>
        <mxCell id="LZs2rjxKlA266blrwGbd-103" value="" style="endArrow=classic;html=1;rounded=0;entryX=0.5;entryY=0;entryDx=0;entryDy=0;" edge="1" parent="LZs2rjxKlA266blrwGbd-121" target="LZs2rjxKlA266blrwGbd-101">
          <mxGeometry width="50" height="50" relative="1" as="geometry">
            <mxPoint x="190" y="160" as="sourcePoint" />
            <mxPoint x="250" y="210" as="targetPoint" />
          </mxGeometry>
        </mxCell>
        <mxCell id="LZs2rjxKlA266blrwGbd-104" value="&lt;div align=&quot;center&quot;&gt;&lt;font style=&quot;font-size: 14px;&quot;&gt;&lt;b&gt;VS2&lt;/b&gt;&lt;/font&gt;&lt;/div&gt;" style="rounded=0;whiteSpace=wrap;html=1;align=center;verticalAlign=middle;fillColor=#E6E6E6;strokeColor=#999999;strokeWidth=2;" vertex="1" parent="LZs2rjxKlA266blrwGbd-121">
          <mxGeometry x="245" width="80" height="50" as="geometry" />
        </mxCell>
        <mxCell id="LZs2rjxKlA266blrwGbd-105" value="" style="edgeStyle=orthogonalEdgeStyle;rounded=0;orthogonalLoop=1;jettySize=auto;html=1;" edge="1" parent="LZs2rjxKlA266blrwGbd-121" source="LZs2rjxKlA266blrwGbd-99" target="LZs2rjxKlA266blrwGbd-104">
          <mxGeometry relative="1" as="geometry" />
        </mxCell>
        <mxCell id="LZs2rjxKlA266blrwGbd-126" value="" style="edgeStyle=orthogonalEdgeStyle;rounded=0;orthogonalLoop=1;jettySize=auto;html=1;" edge="1" parent="1" source="LZs2rjxKlA266blrwGbd-122">
          <mxGeometry relative="1" as="geometry">
            <mxPoint x="-600" y="524" as="targetPoint" />
          </mxGeometry>
        </mxCell>
        <mxCell id="LZs2rjxKlA266blrwGbd-122" value="&lt;div&gt;&lt;font style=&quot;font-size: 14px;&quot;&gt;&lt;br&gt;&lt;/font&gt;&lt;/div&gt;&lt;div&gt;&lt;font size=&quot;3&quot;&gt;&lt;b&gt;Pre-processed Dataset&lt;/b&gt;&lt;/font&gt;&lt;/div&gt;&lt;font size=&quot;3&quot;&gt;&lt;b&gt;(4082, 45)&lt;/b&gt;&lt;/font&gt;" style="strokeWidth=2;html=1;shape=mxgraph.flowchart.database;whiteSpace=wrap;fillColor=#B9E0A5;" vertex="1" parent="1">
          <mxGeometry x="-770" y="452.5" width="140" height="142.5" as="geometry" />
        </mxCell>
        <mxCell id="LZs2rjxKlA266blrwGbd-123" value="" style="group" vertex="1" connectable="0" parent="1">
          <mxGeometry x="-270" y="441.5" width="170" height="388.5" as="geometry" />
        </mxCell>
        <mxCell id="LZs2rjxKlA266blrwGbd-111" value="&lt;div&gt;&lt;font style=&quot;font-size: 14px;&quot;&gt;&lt;b&gt;&lt;font&gt;Model evaluation and&lt;/font&gt;&lt;/b&gt;&lt;/font&gt;&lt;/div&gt;&lt;div&gt;&lt;b&gt;&lt;font style=&quot;font-size: 14px;&quot;&gt;Tuning&lt;/font&gt;&lt;/b&gt;&lt;br&gt;&lt;/div&gt;" style="rhombus;whiteSpace=wrap;html=1;fillColor=#D4E1F5;" vertex="1" parent="LZs2rjxKlA266blrwGbd-123">
          <mxGeometry width="170" height="164.49" as="geometry" />
        </mxCell>
        <mxCell id="LZs2rjxKlA266blrwGbd-114" value="&lt;font style=&quot;font-size: 14px;&quot;&gt;&lt;b&gt;Final&amp;nbsp; Validation&lt;br&gt;&lt;/b&gt;&lt;/font&gt;" style="whiteSpace=wrap;html=1;fillColor=#E6E6E6;strokeColor=#999999;" vertex="1" parent="LZs2rjxKlA266blrwGbd-123">
          <mxGeometry x="25" y="208.5" width="120" height="60" as="geometry" />
        </mxCell>
        <mxCell id="LZs2rjxKlA266blrwGbd-115" value="" style="edgeStyle=orthogonalEdgeStyle;rounded=0;orthogonalLoop=1;jettySize=auto;html=1;" edge="1" parent="LZs2rjxKlA266blrwGbd-123" source="LZs2rjxKlA266blrwGbd-111" target="LZs2rjxKlA266blrwGbd-114">
          <mxGeometry relative="1" as="geometry" />
        </mxCell>
        <mxCell id="LZs2rjxKlA266blrwGbd-117" value="&lt;font style=&quot;font-size: 14px;&quot;&gt;&lt;b&gt;Proof-of-work&lt;/b&gt;&lt;/font&gt;" style="ellipse;whiteSpace=wrap;html=1;rounded=1;arcSize=14;strokeWidth=2;fillColor=#FFCCE6;" vertex="1" parent="LZs2rjxKlA266blrwGbd-123">
          <mxGeometry x="5" y="308.5" width="160" height="80" as="geometry" />
        </mxCell>
        <mxCell id="LZs2rjxKlA266blrwGbd-119" value="" style="edgeStyle=orthogonalEdgeStyle;rounded=0;orthogonalLoop=1;jettySize=auto;html=1;" edge="1" parent="LZs2rjxKlA266blrwGbd-123" source="LZs2rjxKlA266blrwGbd-114" target="LZs2rjxKlA266blrwGbd-117">
          <mxGeometry relative="1" as="geometry" />
        </mxCell>
        <mxCell id="LZs2rjxKlA266blrwGbd-124" value="" style="edgeStyle=orthogonalEdgeStyle;rounded=0;orthogonalLoop=1;jettySize=auto;html=1;" edge="1" parent="1" source="LZs2rjxKlA266blrwGbd-92" target="LZs2rjxKlA266blrwGbd-122">
          <mxGeometry relative="1" as="geometry" />
        </mxCell>
      </root>
    </mxGraphModel>
  </diagram>
</mxfile>
